<svg xmlns="http://www.w3.org/2000/svg" style="display:none" aria-hidden="true">
  <!-- Generated by scripts/build-icon-sprite.mjs from @phosphor-icons/core. Do not edit by hand. -->
  <symbol id="i-nav-dashboard" viewBox="0 0 256 256" fill="currentColor"><path d="M219.31,108.68l-80-80a16,16,0,0,0-22.62,0l-80,80A15.87,15.87,0,0,0,32,120v96a8,8,0,0,0,8,8h64a8,8,0,0,0,8-8V160h32v56a8,8,0,0,0,8,8h64a8,8,0,0,0,8-8V120A15.87,15.87,0,0,0,219.31,108.68ZM208,208H160V152a8,8,0,0,0-8-8H104a8,8,0,0,0-8,8v56H48V120l80-80,80,80Z"/></symbol>
  <symbol id="i-nav-recipes" viewBox="0 0 256 256" fill="currentColor"><path d="M88,48V16a8,8,0,0,1,16,0V48a8,8,0,0,1-16,0Zm40,8a8,8,0,0,0,8-8V16a8,8,0,0,0-16,0V48A8,8,0,0,0,128,56Zm32,0a8,8,0,0,0,8-8V16a8,8,0,0,0-16,0V48A8,8,0,0,0,160,56Zm92.8,46.4L224,124v60a32,32,0,0,1-32,32H64a32,32,0,0,1-32-32V124L3.2,102.4a8,8,0,0,1,9.6-12.8L32,104V80a8,8,0,0,1,8-8H216a8,8,0,0,1,8,8v24l19.2-14.4a8,8,0,0,1,9.6,12.8ZM208,88H48v96a16,16,0,0,0,16,16H192a16,16,0,0,0,16-16Z"/></symbol>
  <symbol id="i-nav-planner" viewBox="0 0 256 256" fill="currentColor"><path d="M208,32H184V24a8,8,0,0,0-16,0v8H88V24a8,8,0,0,0-16,0v8H48A16,16,0,0,0,32,48V208a16,16,0,0,0,16,16H208a16,16,0,0,0,16-16V48A16,16,0,0,0,208,32ZM72,48v8a8,8,0,0,0,16,0V48h80v8a8,8,0,0,0,16,0V48h24V80H48V48ZM208,208H48V96H208V208Z"/></symbol>
  <symbol id="i-nav-shopping" viewBox="0 0 256 256" fill="currentColor"><path d="M136,120v56a8,8,0,0,1-16,0V120a8,8,0,0,1,16,0Zm36.84-.8-5.6,56A8,8,0,0,0,174.4,184a7.32,7.32,0,0,0,.81,0,8,8,0,0,0,7.95-7.2l5.6-56a8,8,0,0,0-15.92-1.6Zm-89.68,0a8,8,0,0,0-15.92,1.6l5.6,56a8,8,0,0,0,8,7.2,7.32,7.32,0,0,0,.81,0,8,8,0,0,0,7.16-8.76ZM239.93,89.06,224.86,202.12A16.06,16.06,0,0,1,209,216H47a16.06,16.06,0,0,1-15.86-13.88L16.07,89.06A8,8,0,0,1,24,80H68.37L122,18.73a8,8,0,0,1,12,0L187.63,80H232a8,8,0,0,1,7.93,9.06ZM89.63,80h76.74L128,36.15ZM222.86,96H33.14L47,200H209Z"/></symbol>
  <symbol id="i-nav-ask" viewBox="0 0 256 256" fill="currentColor"><path d="M197.58,129.06,146,110l-19-51.62a15.92,15.92,0,0,0-29.88,0L78,110l-51.62,19a15.92,15.92,0,0,0,0,29.88L78,178l19,51.62a15.92,15.92,0,0,0,29.88,0L146,178l51.62-19a15.92,15.92,0,0,0,0-29.88ZM137,164.22a8,8,0,0,0-4.74,4.74L112,223.85,91.78,169A8,8,0,0,0,87,164.22L32.15,144,87,123.78A8,8,0,0,0,91.78,119L112,64.15,132.22,119a8,8,0,0,0,4.74,4.74L191.85,144ZM144,40a8,8,0,0,1,8-8h16V16a8,8,0,0,1,16,0V32h16a8,8,0,0,1,0,16H184V64a8,8,0,0,1-16,0V48H152A8,8,0,0,1,144,40ZM248,88a8,8,0,0,1-8,8h-8v8a8,8,0,0,1-16,0V96h-8a8,8,0,0,1,0-16h8V72a8,8,0,0,1,16,0v8h8A8,8,0,0,1,248,88Z"/></symbol>
  <symbol id="i-account" viewBox="0 0 256 256" fill="currentColor"><path d="M128,24A104,104,0,1,0,232,128,104.11,104.11,0,0,0,128,24ZM74.08,197.5a64,64,0,0,1,107.84,0,87.83,87.83,0,0,1-107.84,0ZM96,120a32,32,0,1,1,32,32A32,32,0,0,1,96,120Zm97.76,66.41a79.66,79.66,0,0,0-36.06-28.75,48,48,0,1,0-59.4,0,79.66,79.66,0,0,0-36.06,28.75,88,88,0,1,1,131.52,0Z"/></symbol>
  <symbol id="i-theme-light" viewBox="0 0 256 256" fill="currentColor"><path d="M120,40V16a8,8,0,0,1,16,0V40a8,8,0,0,1-16,0Zm72,88a64,64,0,1,1-64-64A64.07,64.07,0,0,1,192,128Zm-16,0a48,48,0,1,0-48,48A48.05,48.05,0,0,0,176,128ZM58.34,69.66A8,8,0,0,0,69.66,58.34l-16-16A8,8,0,0,0,42.34,53.66Zm0,116.68-16,16a8,8,0,0,0,11.32,11.32l16-16a8,8,0,0,0-11.32-11.32ZM192,72a8,8,0,0,0,5.66-2.34l16-16a8,8,0,0,0-11.32-11.32l-16,16A8,8,0,0,0,192,72Zm5.66,114.34a8,8,0,0,0-11.32,11.32l16,16a8,8,0,0,0,11.32-11.32ZM48,128a8,8,0,0,0-8-8H16a8,8,0,0,0,0,16H40A8,8,0,0,0,48,128Zm80,80a8,8,0,0,0-8,8v24a8,8,0,0,0,16,0V216A8,8,0,0,0,128,208Zm112-88H216a8,8,0,0,0,0,16h24a8,8,0,0,0,0-16Z"/></symbol>
  <symbol id="i-theme-dark" viewBox="0 0 256 256" fill="currentColor"><path d="M233.54,142.23a8,8,0,0,0-8-2,88.08,88.08,0,0,1-109.8-109.8,8,8,0,0,0-10-10,104.84,104.84,0,0,0-52.91,37A104,104,0,0,0,136,224a103.09,103.09,0,0,0,62.52-20.88,104.84,104.84,0,0,0,37-52.91A8,8,0,0,0,233.54,142.23ZM188.9,190.34A88,88,0,0,1,65.66,67.11a89,89,0,0,1,31.4-26A106,106,0,0,0,96,56,104.11,104.11,0,0,0,200,160a106,106,0,0,0,14.92-1.06A89,89,0,0,1,188.9,190.34Z"/></symbol>
  <symbol id="i-heart" viewBox="0 0 256 256" fill="currentColor"><path d="M178,40c-20.65,0-38.73,8.88-50,23.89C116.73,48.88,98.65,40,78,40a62.07,62.07,0,0,0-62,62c0,70,103.79,126.66,108.21,129a8,8,0,0,0,7.58,0C136.21,228.66,240,172,240,102A62.07,62.07,0,0,0,178,40ZM128,214.8C109.74,204.16,32,155.69,32,102A46.06,46.06,0,0,1,78,56c19.45,0,35.78,10.36,42.6,27a8,8,0,0,0,14.8,0c6.82-16.67,23.15-27,42.6-27a46.06,46.06,0,0,1,46,46C224,155.61,146.24,204.15,128,214.8Z"/></symbol>
  <symbol id="i-heart-fill" viewBox="0 0 256 256" fill="currentColor"><path d="M240,102c0,70-103.79,126.66-108.21,129a8,8,0,0,1-7.58,0C119.79,228.66,16,172,16,102A62.07,62.07,0,0,1,78,40c20.65,0,38.73,8.88,50,23.89C139.27,48.88,157.35,40,178,40A62.07,62.07,0,0,1,240,102Z"/></symbol>
  <symbol id="i-edit" viewBox="0 0 256 256" fill="currentColor"><path d="M227.31,73.37,182.63,28.68a16,16,0,0,0-22.63,0L36.69,152A15.86,15.86,0,0,0,32,163.31V208a16,16,0,0,0,16,16H92.69A15.86,15.86,0,0,0,104,219.31L227.31,96a16,16,0,0,0,0-22.63ZM92.69,208H48V163.31l88-88L180.69,120ZM192,108.68,147.31,64l24-24L216,84.68Z"/></symbol>
  <symbol id="i-trash" viewBox="0 0 256 256" fill="currentColor"><path d="M216,48H176V40a24,24,0,0,0-24-24H104A24,24,0,0,0,80,40v8H40a8,8,0,0,0,0,16h8V208a16,16,0,0,0,16,16H192a16,16,0,0,0,16-16V64h8a8,8,0,0,0,0-16ZM96,40a8,8,0,0,1,8-8h48a8,8,0,0,1,8,8v8H96Zm96,168H64V64H192ZM112,104v64a8,8,0,0,1-16,0V104a8,8,0,0,1,16,0Zm48,0v64a8,8,0,0,1-16,0V104a8,8,0,0,1,16,0Z"/></symbol>
  <symbol id="i-more" viewBox="0 0 256 256" fill="currentColor"><path d="M140,128a12,12,0,1,1-12-12A12,12,0,0,1,140,128Zm56-12a12,12,0,1,0,12,12A12,12,0,0,0,196,116ZM60,116a12,12,0,1,0,12,12A12,12,0,0,0,60,116Z"/></symbol>
  <symbol id="i-close" viewBox="0 0 256 256" fill="currentColor"><path d="M205.66,194.34a8,8,0,0,1-11.32,11.32L128,139.31,61.66,205.66a8,8,0,0,1-11.32-11.32L116.69,128,50.34,61.66A8,8,0,0,1,61.66,50.34L128,116.69l66.34-66.35a8,8,0,0,1,11.32,11.32L139.31,128Z"/></symbol>
  <symbol id="i-plus" viewBox="0 0 256 256" fill="currentColor"><path d="M224,128a8,8,0,0,1-8,8H136v80a8,8,0,0,1-16,0V136H40a8,8,0,0,1,0-16h80V40a8,8,0,0,1,16,0v80h80A8,8,0,0,1,224,128Z"/></symbol>
  <symbol id="i-minus" viewBox="0 0 256 256" fill="currentColor"><path d="M224,128a8,8,0,0,1-8,8H40a8,8,0,0,1,0-16H216A8,8,0,0,1,224,128Z"/></symbol>
  <symbol id="i-settings" viewBox="0 0 256 256" fill="currentColor"><path d="M128,80a48,48,0,1,0,48,48A48.05,48.05,0,0,0,128,80Zm0,80a32,32,0,1,1,32-32A32,32,0,0,1,128,160Zm109.94-52.79a8,8,0,0,0-3.89-5.4l-29.83-17-.12-33.62a8,8,0,0,0-2.83-6.08,111.91,111.91,0,0,0-36.72-20.67,8,8,0,0,0-6.46.59L128,41.85,97.88,25a8,8,0,0,0-6.47-.6A112.1,112.1,0,0,0,54.73,45.15a8,8,0,0,0-2.83,6.07l-.15,33.65-29.83,17a8,8,0,0,0-3.89,5.4,106.47,106.47,0,0,0,0,41.56,8,8,0,0,0,3.89,5.4l29.83,17,.12,33.62a8,8,0,0,0,2.83,6.08,111.91,111.91,0,0,0,36.72,20.67,8,8,0,0,0,6.46-.59L128,214.15,158.12,231a7.91,7.91,0,0,0,3.9,1,8.09,8.09,0,0,0,2.57-.42,112.1,112.1,0,0,0,36.68-20.73,8,8,0,0,0,2.83-6.07l.15-33.65,29.83-17a8,8,0,0,0,3.89-5.4A106.47,106.47,0,0,0,237.94,107.21Zm-15,34.91-28.57,16.25a8,8,0,0,0-3,3c-.58,1-1.19,2.06-1.81,3.06a7.94,7.94,0,0,0-1.22,4.21l-.15,32.25a95.89,95.89,0,0,1-25.37,14.3L134,199.13a8,8,0,0,0-3.91-1h-.19c-1.21,0-2.43,0-3.64,0a8.08,8.08,0,0,0-4.1,1l-28.84,16.1A96,96,0,0,1,67.88,201l-.11-32.2a8,8,0,0,0-1.22-4.22c-.62-1-1.23-2-1.8-3.06a8.09,8.09,0,0,0-3-3.06l-28.6-16.29a90.49,90.49,0,0,1,0-28.26L61.67,97.63a8,8,0,0,0,3-3c.58-1,1.19-2.06,1.81-3.06a7.94,7.94,0,0,0,1.22-4.21l.15-32.25a95.89,95.89,0,0,1,25.37-14.3L122,56.87a8,8,0,0,0,4.1,1c1.21,0,2.43,0,3.64,0a8.08,8.08,0,0,0,4.1-1l28.84-16.1A96,96,0,0,1,188.12,55l.11,32.2a8,8,0,0,0,1.22,4.22c.62,1,1.23,2,1.8,3.06a8.09,8.09,0,0,0,3,3.06l28.6,16.29A90.49,90.49,0,0,1,222.9,142.12Z"/></symbol>
  <symbol id="i-search" viewBox="0 0 256 256" fill="currentColor"><path d="M229.66,218.34l-50.07-50.06a88.11,88.11,0,1,0-11.31,11.31l50.06,50.07a8,8,0,0,0,11.32-11.32ZM40,112a72,72,0,1,1,72,72A72.08,72.08,0,0,1,40,112Z"/></symbol>
  <symbol id="i-chili" viewBox="0 0 256 256" fill="currentColor"><path d="M143.38,17.85a8,8,0,0,0-12.63,3.41l-22,60.41L84.59,58.26a8,8,0,0,0-11.93.89C51,87.53,40,116.08,40,144a88,88,0,0,0,176,0C216,84.55,165.21,36,143.38,17.85Z"/></symbol>
  <symbol id="i-check" viewBox="0 0 256 256" fill="currentColor"><path d="M229.66,77.66l-128,128a8,8,0,0,1-11.32,0l-56-56a8,8,0,0,1,11.32-11.32L96,188.69,218.34,66.34a8,8,0,0,1,11.32,11.32Z"/></symbol>
  <symbol id="i-arrow-left" viewBox="0 0 256 256" fill="currentColor"><path d="M165.66,202.34a8,8,0,0,1-11.32,11.32l-80-80a8,8,0,0,1,0-11.32l80-80a8,8,0,0,1,11.32,11.32L91.31,128Z"/></symbol>
  <symbol id="i-arrow-right" viewBox="0 0 256 256" fill="currentColor"><path d="M181.66,133.66l-80,80a8,8,0,0,1-11.32-11.32L164.69,128,90.34,53.66a8,8,0,0,1,11.32-11.32l80,80A8,8,0,0,1,181.66,133.66Z"/></symbol>
  <symbol id="i-sparkle" viewBox="0 0 256 256" fill="currentColor"><path d="M197.58,129.06,146,110l-19-51.62a15.92,15.92,0,0,0-29.88,0L78,110l-51.62,19a15.92,15.92,0,0,0,0,29.88L78,178l19,51.62a15.92,15.92,0,0,0,29.88,0L146,178l51.62-19a15.92,15.92,0,0,0,0-29.88ZM137,164.22a8,8,0,0,0-4.74,4.74L112,223.85,91.78,169A8,8,0,0,0,87,164.22L32.15,144,87,123.78A8,8,0,0,0,91.78,119L112,64.15,132.22,119a8,8,0,0,0,4.74,4.74L191.85,144ZM144,40a8,8,0,0,1,8-8h16V16a8,8,0,0,1,16,0V32h16a8,8,0,0,1,0,16H184V64a8,8,0,0,1-16,0V48H152A8,8,0,0,1,144,40ZM248,88a8,8,0,0,1-8,8h-8v8a8,8,0,0,1-16,0V96h-8a8,8,0,0,1,0-16h8V72a8,8,0,0,1,16,0v8h8A8,8,0,0,1,248,88Z"/></symbol>
  <symbol id="i-shuffle" viewBox="0 0 256 256" fill="currentColor"><path d="M237.66,178.34a8,8,0,0,1,0,11.32l-24,24a8,8,0,0,1-11.32-11.32L212.69,192H200.94a72.12,72.12,0,0,1-58.59-30.15l-41.72-58.4A56.1,56.1,0,0,0,55.06,80H32a8,8,0,0,1,0-16H55.06a72.12,72.12,0,0,1,58.59,30.15l41.72,58.4A56.1,56.1,0,0,0,200.94,176h11.75l-10.35-10.34a8,8,0,0,1,11.32-11.32ZM143,107a8,8,0,0,0,11.16-1.86l1.2-1.67A56.1,56.1,0,0,1,200.94,80h11.75L202.34,90.34a8,8,0,0,0,11.32,11.32l24-24a8,8,0,0,0,0-11.32l-24-24a8,8,0,0,0-11.32,11.32L212.69,64H200.94a72.12,72.12,0,0,0-58.59,30.15l-1.2,1.67A8,8,0,0,0,143,107Zm-30,42a8,8,0,0,0-11.16,1.86l-1.2,1.67A56.1,56.1,0,0,1,55.06,176H32a8,8,0,0,0,0,16H55.06a72.12,72.12,0,0,0,58.59-30.15l1.2-1.67A8,8,0,0,0,113,149Z"/></symbol>
  <symbol id="i-pin" viewBox="0 0 256 256" fill="currentColor"><path d="M235.32,81.37,174.63,20.69a16,16,0,0,0-22.63,0L98.37,74.49c-10.66-3.34-35-7.37-60.4,13.14a16,16,0,0,0-1.29,23.78L85,159.71,42.34,202.34a8,8,0,0,0,11.32,11.32L96.29,171l48.29,48.29A16,16,0,0,0,155.9,224c.38,0,.75,0,1.13,0a15.93,15.93,0,0,0,11.64-6.33c19.64-26.1,17.75-47.32,13.19-60L235.33,104A16,16,0,0,0,235.32,81.37ZM224,92.69h0l-57.27,57.46a8,8,0,0,0-1.49,9.22c9.46,18.93-1.8,38.59-9.34,48.62L48,100.08c12.08-9.74,23.64-12.31,32.48-12.31A40.13,40.13,0,0,1,96.81,91a8,8,0,0,0,9.25-1.51L163.32,32,224,92.68Z"/></symbol>
  <symbol id="i-leftovers" viewBox="0 0 256 256" fill="currentColor"><path d="M224,104h-8.37a88,88,0,0,0-175.26,0H32a8,8,0,0,0-8,8,104.35,104.35,0,0,0,56,92.28V208a16,16,0,0,0,16,16h64a16,16,0,0,0,16-16v-3.72A104.35,104.35,0,0,0,232,112,8,8,0,0,0,224,104Zm-24.46,0H148.12a71.84,71.84,0,0,1,41.27-29.57A71.45,71.45,0,0,1,199.54,104ZM173.48,56.23q2.75,2.25,5.27,4.75a87.92,87.92,0,0,0-49.15,43H100.1A72.26,72.26,0,0,1,168,56C169.83,56,171.66,56.09,173.48,56.23ZM128,40a71.87,71.87,0,0,1,19,2.57A88.36,88.36,0,0,0,83.33,104H56.46A72.08,72.08,0,0,1,128,40Zm36.66,152A8,8,0,0,0,160,199.3V208H96v-8.7A8,8,0,0,0,91.34,192a88.29,88.29,0,0,1-51-72H215.63A88.29,88.29,0,0,1,164.66,192Z"/></symbol>
  <symbol id="i-warning" viewBox="0 0 256 256" fill="currentColor"><path d="M236.8,188.09,149.35,36.22h0a24.76,24.76,0,0,0-42.7,0L19.2,188.09a23.51,23.51,0,0,0,0,23.72A24.35,24.35,0,0,0,40.55,224h174.9a24.35,24.35,0,0,0,21.33-12.19A23.51,23.51,0,0,0,236.8,188.09ZM222.93,203.8a8.5,8.5,0,0,1-7.48,4.2H40.55a8.5,8.5,0,0,1-7.48-4.2,7.59,7.59,0,0,1,0-7.72L120.52,44.21a8.75,8.75,0,0,1,15,0l87.45,151.87A7.59,7.59,0,0,1,222.93,203.8ZM120,144V104a8,8,0,0,1,16,0v40a8,8,0,0,1-16,0Zm20,36a12,12,0,1,1-12-12A12,12,0,0,1,140,180Z"/></symbol>
  <symbol id="i-square" viewBox="0 0 256 256" fill="currentColor"><path d="M208,32H48A16,16,0,0,0,32,48V208a16,16,0,0,0,16,16H208a16,16,0,0,0,16-16V48A16,16,0,0,0,208,32Zm0,176H48V48H208V208Z"/></symbol>
  <symbol id="i-square-check" viewBox="0 0 256 256" fill="currentColor"><path d="M208,32H48A16,16,0,0,0,32,48V208a16,16,0,0,0,16,16H208a16,16,0,0,0,16-16V48A16,16,0,0,0,208,32Zm-34.34,77.66-56,56a8,8,0,0,1-11.32,0l-24-24a8,8,0,0,1,11.32-11.32L112,148.69l50.34-50.35a8,8,0,0,1,11.32,11.32Z"/></symbol>
  <symbol id="i-image" viewBox="0 0 256 256" fill="currentColor"><path d="M216,40H40A16,16,0,0,0,24,56V200a16,16,0,0,0,16,16H216a16,16,0,0,0,16-16V56A16,16,0,0,0,216,40Zm0,16V158.75l-26.07-26.06a16,16,0,0,0-22.63,0l-20,20-44-44a16,16,0,0,0-22.62,0L40,149.37V56ZM40,172l52-52,80,80H40Zm176,28H194.63l-36-36,20-20L216,181.38V200ZM144,100a12,12,0,1,1,12,12A12,12,0,0,1,144,100Z"/></symbol>
  <symbol id="i-camera" viewBox="0 0 256 256" fill="currentColor"><path d="M208,56H180.28L166.65,35.56A8,8,0,0,0,160,32H96a8,8,0,0,0-6.65,3.56L75.71,56H48A24,24,0,0,0,24,80V192a24,24,0,0,0,24,24H208a24,24,0,0,0,24-24V80A24,24,0,0,0,208,56Zm8,136a8,8,0,0,1-8,8H48a8,8,0,0,1-8-8V80a8,8,0,0,1,8-8H80a8,8,0,0,0,6.66-3.56L100.28,48h55.43l13.63,20.44A8,8,0,0,0,176,72h32a8,8,0,0,1,8,8ZM128,88a44,44,0,1,0,44,44A44.05,44.05,0,0,0,128,88Zm0,72a28,28,0,1,1,28-28A28,28,0,0,1,128,160Z"/></symbol>
</svg>
